<svg width="35" height="35" viewBox="0 0 35 35" fill="none" xmlns="http://www.w3.org/2000/svg">
<path d="M30.625 11.6667C30.3304 11.6667 23.5521 11.709 17.5 14.595C11.4479 11.709 4.6696 11.6667 4.37502 11.6667C3.98825 11.6667 3.61731 11.8203 3.34382 12.0938C3.07033 12.3673 2.91669 12.7382 2.91669 13.125V27.5377C2.91669 27.7334 2.95607 27.9271 3.03249 28.1072C3.1089 28.2874 3.22079 28.4503 3.36148 28.5863C3.64585 28.8604 4.06148 29.0311 4.4246 28.9946L4.60981 28.9931C5.60585 28.9931 10.8748 29.1361 16.8831 31.9463C16.9065 31.9579 16.9327 31.9536 16.9561 31.9623C17.1296 32.0338 17.3119 32.0834 17.5 32.0834C17.6881 32.0834 17.8704 32.0338 18.0454 31.9623C18.0688 31.9536 18.095 31.9579 18.1184 31.9463C24.1267 29.1346 29.3956 28.9931 30.3917 28.9931L30.5769 28.9946C30.924 29.0311 31.3542 28.8604 31.64 28.5863C31.9229 28.3106 32.0834 27.9315 32.0834 27.5377V13.125C32.0834 12.7382 31.9297 12.3673 31.6562 12.0938C31.3827 11.8203 31.0118 11.6667 30.625 11.6667ZM5.83335 14.6548C7.99898 14.8167 12.2223 15.3548 16.0417 17.1223V28.4127C11.6667 26.6992 7.8896 26.234 5.83335 26.1144V14.6548ZM29.1667 26.1144C27.1104 26.234 23.3334 26.6992 18.9584 28.4127V17.1223C22.7777 15.3548 27.0011 14.8167 29.1667 14.6548V26.1144Z" fill="#EDC94B"/>
<path d="M17.5 11.6667C19.9162 11.6667 21.875 9.70793 21.875 7.29169C21.875 4.87544 19.9162 2.91669 17.5 2.91669C15.0838 2.91669 13.125 4.87544 13.125 7.29169C13.125 9.70793 15.0838 11.6667 17.5 11.6667Z" fill="#EDC94B"/>
</svg>
