<svg width="30" height="30" viewBox="0 0 30 30" fill="none" xmlns="http://www.w3.org/2000/svg">
<path d="M23.4185 6.6237L21.8185 7.8737L15.006 12.9362L8.19354 7.8237L6.59354 6.5737C6.21661 6.26188 5.75648 6.0675 5.27015 6.01464C4.78383 5.96178 4.29268 6.05276 3.85755 6.27631C3.42243 6.49986 3.06245 6.84616 2.82222 7.2723C2.58199 7.69844 2.47205 8.18569 2.50604 8.6737V23.1612C2.50604 23.6121 2.68515 24.0445 3.00396 24.3633C3.32277 24.6821 3.75517 24.8612 4.20604 24.8612H8.19354V15.2112L15.006 20.3237L21.8185 15.2112V24.8612H25.806C26.2569 24.8612 26.6893 24.6821 27.0081 24.3633C27.3269 24.0445 27.506 23.6121 27.506 23.1612V8.6737C27.5295 8.18991 27.4119 7.70971 27.1676 7.29148C26.9233 6.87325 26.5627 6.53501 26.1297 6.31787C25.6968 6.10072 25.2101 6.01403 24.7287 6.06832C24.2474 6.12262 23.7923 6.31556 23.4185 6.6237Z" fill="black"/>
</svg>
