<svg width="30" height="30" viewBox="0 0 30 30" fill="none" xmlns="http://www.w3.org/2000/svg">
<path fill-rule="evenodd" clip-rule="evenodd" d="M9.08125 1.74913C10.5475 1.68163 11.015 1.66663 14.75 1.66663C18.485 1.66663 18.9525 1.68288 20.4175 1.74913C21.8825 1.81538 22.8825 2.04913 23.7575 2.38788C24.6737 2.73413 25.505 3.27538 26.1925 3.97538C26.8925 4.66163 27.4325 5.49163 27.7775 6.40913C28.1175 7.28413 28.35 8.28413 28.4175 9.74663C28.485 11.2154 28.5 11.6829 28.5 15.4166C28.5 19.1516 28.4837 19.6191 28.4175 21.0854C28.3512 22.5479 28.1175 23.5479 27.7775 24.4229C27.4325 25.3405 26.8916 26.1719 26.1925 26.8591C25.505 27.5591 24.6737 28.0991 23.7575 28.4441C22.8825 28.7841 21.8825 29.0166 20.42 29.0841C18.9525 29.1516 18.485 29.1666 14.75 29.1666C11.015 29.1666 10.5475 29.1504 9.08125 29.0841C7.61875 29.0179 6.61875 28.7841 5.74375 28.4441C4.82615 28.0991 3.99478 27.5582 3.3075 26.8591C2.60797 26.1725 2.06664 25.3415 1.72125 24.4241C1.3825 23.5491 1.15 22.5491 1.0825 21.0866C1.015 19.6179 1 19.1504 1 15.4166C1 11.6816 1.01625 11.2141 1.0825 9.74913C1.14875 8.28413 1.3825 7.28413 1.72125 6.40913C2.06715 5.49173 2.6089 4.66077 3.30875 3.97413C3.99505 3.27475 4.82559 2.73343 5.7425 2.38788C6.6175 2.04913 7.6175 1.81663 9.08 1.74913H9.08125ZM20.3062 4.22413C18.8562 4.15788 18.4212 4.14413 14.75 4.14413C11.0787 4.14413 10.6438 4.15788 9.19375 4.22413C7.8525 4.28538 7.125 4.50913 6.64 4.69788C5.99875 4.94788 5.54 5.24413 5.05875 5.72538C4.60256 6.16919 4.25148 6.70948 4.03125 7.30663C3.8425 7.79163 3.61875 8.51913 3.5575 9.86038C3.49125 11.3104 3.4775 11.7454 3.4775 15.4166C3.4775 19.0879 3.49125 19.5229 3.5575 20.9729C3.61875 22.3141 3.8425 23.0416 4.03125 23.5266C4.25125 24.1229 4.6025 24.6641 5.05875 25.1079C5.5025 25.5641 6.04375 25.9154 6.64 26.1354C7.125 26.3241 7.8525 26.5479 9.19375 26.6091C10.6438 26.6754 11.0775 26.6891 14.75 26.6891C18.4225 26.6891 18.8562 26.6754 20.3062 26.6091C21.6475 26.5479 22.375 26.3241 22.86 26.1354C23.5013 25.8854 23.96 25.5891 24.4412 25.1079C24.8975 24.6641 25.2488 24.1229 25.4688 23.5266C25.6575 23.0416 25.8813 22.3141 25.9425 20.9729C26.0088 19.5229 26.0225 19.0879 26.0225 15.4166C26.0225 11.7454 26.0088 11.3104 25.9425 9.86038C25.8813 8.51913 25.6575 7.79163 25.4688 7.30663C25.2188 6.66538 24.9225 6.20663 24.4412 5.72538C23.9974 5.26922 23.4571 4.91814 22.86 4.69788C22.375 4.50913 21.6475 4.28538 20.3062 4.22413ZM12.9938 19.6554C13.9746 20.0637 15.0667 20.1188 16.0837 19.8113C17.1006 19.5038 17.9792 18.8528 18.5695 17.9694C19.1598 17.0861 19.4251 16.0252 19.3201 14.968C19.215 13.9108 18.7463 12.9228 17.9937 12.1729C17.514 11.6935 16.934 11.3264 16.2954 11.0981C15.6568 10.8697 14.9755 10.7858 14.3006 10.8524C13.6257 10.919 12.9739 11.1343 12.3923 11.483C11.8106 11.8317 11.3134 12.3051 10.9366 12.8689C10.5598 13.4328 10.3127 14.0732 10.2131 14.7441C10.1136 15.4149 10.1639 16.0995 10.3607 16.7485C10.5574 17.3976 10.8956 17.9949 11.3509 18.4975C11.8062 19.0002 12.3673 19.3956 12.9938 19.6554ZM9.7525 10.4191C10.4088 9.76285 11.1879 9.24225 12.0454 8.88708C12.9028 8.5319 13.8219 8.34909 14.75 8.34909C15.6781 8.34909 16.5972 8.5319 17.4546 8.88708C18.3121 9.24225 19.0912 9.76285 19.7475 10.4191C20.4038 11.0754 20.9244 11.8545 21.2795 12.712C21.6347 13.5695 21.8175 14.4885 21.8175 15.4166C21.8175 16.3447 21.6347 17.2638 21.2795 18.1213C20.9244 18.9787 20.4038 19.7578 19.7475 20.4141C18.4221 21.7395 16.6244 22.4842 14.75 22.4842C12.8756 22.4842 11.0779 21.7395 9.7525 20.4141C8.42708 19.0887 7.68247 17.2911 7.68247 15.4166C7.68247 13.5422 8.42708 11.7445 9.7525 10.4191ZM23.385 9.40163C23.5476 9.24821 23.6778 9.06373 23.7679 8.85909C23.8579 8.65446 23.906 8.43384 23.9093 8.21029C23.9125 7.98674 23.8709 7.76481 23.7869 7.55764C23.7028 7.35047 23.578 7.16226 23.42 7.00417C23.2619 6.84609 23.0737 6.72132 22.8665 6.63727C22.6593 6.55322 22.4374 6.5116 22.2138 6.51485C21.9903 6.51811 21.7697 6.56619 21.565 6.65625C21.3604 6.7463 21.1759 6.8765 21.0225 7.03913C20.7241 7.35541 20.5608 7.77553 20.5671 8.21029C20.5735 8.64505 20.749 9.06022 21.0564 9.36768C21.3639 9.67513 21.7791 9.85066 22.2138 9.857C22.6486 9.86334 23.0687 9.69999 23.385 9.40163Z" fill="black"/>
</svg>
