<svg width="30" height="30" viewBox="0 0 30 30" fill="none" xmlns="http://www.w3.org/2000/svg">
<g clip-path="url(#clip0_81_128)">
<path fill-rule="evenodd" clip-rule="evenodd" d="M21.7688 17.9776C21.3963 17.7913 19.57 16.8938 19.23 16.7688C18.89 16.6451 18.6425 16.5838 18.3938 16.9563C18.1463 17.3263 17.435 18.1638 17.2188 18.4113C17.0013 18.6601 16.785 18.6901 16.4138 18.5051C16.0425 18.3176 14.845 17.9263 13.4263 16.6613C12.3225 15.6763 11.5763 14.4601 11.36 14.0876C11.1438 13.7163 11.3363 13.5151 11.5225 13.3301C11.69 13.1638 11.8938 12.8963 12.08 12.6801C12.2663 12.4626 12.3275 12.3076 12.4513 12.0588C12.5763 11.8113 12.5138 11.5951 12.42 11.4088C12.3275 11.2226 11.585 9.3938 11.275 8.65005C10.9738 7.9263 10.6675 8.02505 10.44 8.01255C10.2225 8.00255 9.975 8.00005 9.7275 8.00005C9.48 8.00005 9.0775 8.09255 8.7375 8.46505C8.39625 8.8363 7.4375 9.73505 7.4375 11.5638C7.4375 13.3913 8.7675 15.1576 8.95375 15.4063C9.14 15.6538 11.5725 19.4063 15.2988 21.0151C16.1863 21.3976 16.8775 21.6263 17.4163 21.7963C18.3063 22.08 19.1163 22.0401 19.7563 21.9438C20.4688 21.8376 21.9538 21.045 22.2638 20.1776C22.5725 19.3101 22.5725 18.5663 22.48 18.4113C22.3875 18.2563 22.14 18.1638 21.7675 17.9776H21.7688ZM14.9913 27.2313H14.9863C12.773 27.2317 10.6005 26.6368 8.69625 25.5088L8.24625 25.2413L3.56875 26.4688L4.8175 21.9088L4.52375 21.4413C3.28642 19.4717 2.63162 17.1923 2.635 14.8663C2.6375 8.0538 8.18 2.5113 14.9963 2.5113C18.2963 2.5113 21.3988 3.7988 23.7313 6.1338C24.8817 7.27953 25.7936 8.64201 26.4141 10.1424C27.0346 11.6428 27.3514 13.2514 27.3463 14.8751C27.3438 21.6875 21.8013 27.2313 14.9913 27.2313ZM25.5063 4.36005C24.129 2.97371 22.4903 1.87447 20.6851 1.12605C18.8799 0.377631 16.9442 -0.00509531 14.99 5.12219e-05C6.7975 5.12219e-05 0.1275 6.6688 0.125 14.8651C0.121204 17.4735 0.805468 20.0368 2.10875 22.2963L0 30L7.88 27.9326C10.0598 29.1202 12.5026 29.7425 14.985 29.7425H14.9913C23.1838 29.7425 29.8538 23.0738 29.8563 14.8763C29.8623 12.9229 29.481 10.9877 28.7343 9.18259C27.9876 7.37751 26.8905 5.73839 25.5063 4.36005Z" fill="black"/>
</g>
<defs>
<clipPath id="clip0_81_128">
<rect width="30" height="30" fill="white"/>
</clipPath>
</defs>
</svg>
